# xmcd
#
# Track frame offsets:
#	150
#	22977
#	50615
#	68705
#	85601
#	101303
#	116042
#	129500
#	149179
#	164187
#	181970
#	195686
#	211004
#	232636
#	254692
#	269231
#	284770
#
# Disc length: 4098 seconds
#
# Revision: 0
# Processed by: cddbd v1.5.2PL0 Copyright (c) Steve Scherf et al.
# Submitted via: EasyCDDAExtractor 11.1.0.1
#
DISCID=05100011
DTITLE=Reijo Mäki - Uhkapelimerkki CD05
DYEAR=1900
DGENRE=Speech
TTITLE0=CD05.01
TTITLE1=CD05.02
TTITLE2=CD05.03
TTITLE3=CD05.04
TTITLE4=CD05.05
TTITLE5=CD05.06
TTITLE6=CD05.07
TTITLE7=CD05.08
TTITLE8=CD05.09
TTITLE9=CD05.10
TTITLE10=CD05.11
TTITLE11=CD05.12
TTITLE12=CD05.13
TTITLE13=CD05.14
TTITLE14=CD05.15
TTITLE15=CD05.16
TTITLE16=CD05.17
EXTD=
EXTT0=
EXTT1=
EXTT2=
EXTT3=
EXTT4=
EXTT5=
EXTT6=
EXTT7=
EXTT8=
EXTT9=
EXTT10=
EXTT11=
EXTT12=
EXTT13=
EXTT14=
EXTT15=
EXTT16=
PLAYORDER=
